PathFileType	4	(X/Y/Z)	Patient4_TMGait_0pt6_01_right_23.trc.trc
DataRate	CameraRate	NumFrames	NumMarkers	Units	OrigDataRate	OrigDataStartFrame	OrigNumFrames
82.840236686391	82.840236686391	4	33	mm	82.840236686391	89	       141
Frame#	Time	Sacral			L.Shoulder			Chest			R.Shoulder			Neck			R.ASIS			L.ASIS			R.Thigh.Superior			R.Thigh.Lateral			R.Thigh.Inferior			R.Patella			L.Thigh.Superior			L.Thigh.Lateral			L.Thigh.Inferior			L.Patella			L.Shank.Superior			L.Shank.Lateral			L.Shank.Inferior			R.Shank.Superior			R.Shank.Lateral			R.Shank.Inferior			R.Heel			R.Midfoot.Superior			R.Midfoot.Lateral			R.Toe			L.Heel			L.Midfoot.Lateral			L.Midfoot.Superior			L.Toe			L.Elbow			L.Wrist			R.Elbow			R.Wrist			
		X1	Y1	Z1	X2	Y2	Z2	X3	Y3	Z3	X4	Y4	Z4	X5	Y5	Z5	X6	Y6	Z6	X7	Y7	Z7	X8	Y8	Z8	X9	Y9	Z9	X10	Y10	Z10	X11	Y11	Z11	X12	Y12	Z12	X13	Y13	Z13	X14	Y14	Z14	X15	Y15	Z15	X16	Y16	Z16	X17	Y17	Z17	X18	Y18	Z18	X19	Y19	Z19	X20	Y20	Z20	X21	Y21	Z21	X22	Y22	Z22	X23	Y23	Z23	X24	Y24	Z24	X25	Y25	Z25	X26	Y26	Z26	X27	Y27	Z27	X28	Y28	Z28	X29	Y29	Z29	X30	Y30	Z30	X31	Y31	Z31	X32	Y32	Z32	X33	Y33	Z33	

89	28.482285714286	651.211137918583	1007.940794211506	499.339248494050	783.972691550541	1437.996303938001	311.973581052137	909.731967323059	1373.815906962075	457.611473937841	845.639940999260	1442.066761507619	641.103878015208	784.543215164423	1496.708580649004	467.741394632071	883.565174370480	941.427339340766	598.992283529655	853.442324835278	965.807162583840	326.984141853276	911.125394361028	732.968559134055	579.848193758606	826.527108138043	627.683664801872	644.960806372170	903.399877375073	565.075941645180	569.879863384209	889.282682558932	456.542847835549	589.254645267447	917.858642741956	759.970747911464	355.766321301931	834.981286386230	636.847378082664	304.508674715892	928.328318758367	566.706473448271	364.123471622372	934.466170778768	498.086451927429	375.730196328982	914.684954840940	424.808767690972	370.013968690985	834.392022623839	302.042394039784	324.828311152762	897.492456097245	197.271862799126	396.002876742954	810.824502265177	391.696001265241	594.233741893481	691.321958641253	350.817602484658	656.211180193468	675.795462887327	243.060072783648	602.971535752467	472.723098536073	173.950888777285	577.260107499695	644.023118378644	122.795254537473	611.303338673343	535.222116320064	112.122328659979	644.215433004855	714.950646000872	30.229371256266	625.685670200100	782.898698686931	37.104498203756	444.628849670228	854.498258247478	35.487281016901	361.496317351076	937.938909621564	97.238376920628	385.552334420375	1065.959516926297	45.565549189843	353.800918613055	715.632975649151	1082.902600772054	215.629800975778	767.833643568816	827.821273088928	208.126917542458	912.669336006147	1097.178379449389	754.594219608250	1141.423086206491	981.190997674247	727.302875395156	
90	28.494357142857	650.734444518129	1007.458708499407	496.368485190831	785.241258250110	1437.910964218234	309.323367621716	909.645611705420	1373.874711693697	456.174382396917	843.853752196975	1441.998737227104	639.131069740424	784.486123235293	1496.816291680229	465.135985530910	882.924496278799	941.636267134071	597.462276393996	854.054992807503	965.915452449838	325.317400859565	916.429253952234	735.251471732563	577.877277843457	835.327388047064	627.982267697422	642.946115540419	913.956854545683	567.053645687119	567.671372057954	901.547747257914	457.233112850502	587.324065237943	917.019542677906	758.896213247760	353.736945700152	833.090813784750	636.630230803394	302.889840532209	925.484006879325	565.821331922006	362.897850107108	930.864386482485	497.246808457750	374.773212047418	910.661837177762	424.022021038382	369.162738573630	829.684329612604	301.749170258333	323.998525580811	891.429163006093	196.710273236330	395.800517991578	821.372904310629	393.001631047673	592.547751479248	700.640532878892	356.036117976107	654.754144206028	681.729210898249	248.647607932692	602.243912403859	477.308853149488	189.166977868328	576.960795131138	645.141226761249	127.810225857871	611.159136644619	536.013695809965	123.830489056932	644.111055943946	709.850092217247	29.130365832500	626.100561872743	775.578517348864	37.050056940967	444.594477014942	847.176571430211	35.387421978527	361.451323064349	930.734418696908	97.006116688268	385.620362605109	1058.742392087294	45.082603979009	353.837026935810	723.635182164358	1081.960564480673	210.296065455975	785.054620802767	828.862912631042	201.532900363736	904.149238975772	1095.421557945833	752.685755769180	1124.750669616303	963.105740030545	728.178575316539	
91	28.506428571429	650.160785240721	1006.874115510543	493.565781353690	786.328958378992	1437.705843557326	306.862571531172	909.439722477022	1373.816120890305	454.867745655531	842.013739438079	1441.779640175591	637.315740152623	784.380043012107	1496.851897856827	462.654807332804	882.182285860595	941.777971975555	596.022716831247	854.496576700505	965.944222919790	323.725750301425	921.596545128193	737.789878061184	575.674070221370	844.253761488990	628.596499374540	640.844413192028	924.401887404802	569.487498472355	565.171509922476	913.949907637173	458.457546009276	585.025333874829	916.126908579570	757.925897458689	352.126033814116	831.439152022482	636.463918244894	301.315151636621	922.794923931529	565.006206506723	361.853045606356	927.426914781449	496.392657211763	373.873955263089	906.747064173415	423.217187894532	368.354491869331	825.048930043588	301.473227045194	323.193388628147	885.436808243277	196.154491126773	395.580410760232	832.247357790091	394.682687318683	590.587331067795	710.477944966528	361.378990286907	653.028494294088	688.430279082517	254.431171450740	601.205000573024	483.205357409125	204.067943090784	576.193334388774	647.307040367372	133.237183866220	610.737619978143	538.112102952584	135.644335689799	643.667027846219	705.876377691724	28.439281481260	626.427603576858	768.277500210383	37.021799157137	444.537473588387	839.880392337810	35.309445227255	361.396286872707	923.559117777550	96.789822492343	385.672476638437	1051.545707118169	44.604278501150	353.867317575350	731.882215872414	1081.088086869652	204.938630735767	802.658807113325	830.356041383098	195.000558300827	895.486566275343	1093.633562741389	750.809304186493	1106.522200957714	945.413475276552	728.956719559835	
92	28.518500000000	649.512754913381	1006.287993216482	490.920924598479	787.215126228293	1437.461809914521	304.614101958505	909.118803009645	1373.710891041475	453.688626128807	840.153899839348	1441.479038490879	635.661972789424	784.220922054476	1496.876381973382	460.313002154752	881.355048950048	941.928764553175	594.652136885445	854.788876061624	965.956099280766	322.197837101399	926.517881960592	740.617983074092	573.239428445953	853.156232430687	629.599674044234	638.699476158511	934.584642200390	572.413980776682	562.454705907212	926.339942437764	460.256782625752	582.489424570009	915.184354278931	757.077309502594	350.824471095795	829.887023217944	636.351122462146	299.804512853634	920.181753655749	564.248974464294	360.908016279671	924.084738190264	495.541970965593	373.009533151934	902.881632391366	422.421242205098	367.576455707163	820.423606779464	301.236535047105	322.418293594121	879.489667446546	195.627432055262	395.329348967799	843.315586753084	396.771741508105	588.446304841798	720.670079337352	366.786303128709	651.068072949944	695.855043761989	260.294427391594	599.888982318394	490.284307023778	218.162599807431	574.955605618526	650.656707394389	138.934543244726	610.024646294363	541.585087564887	147.136637934751	642.844863786424	703.432029783730	28.355778241673	626.559439978930	760.998487723936	37.024638492202	444.455039433012	832.611586437158	35.255457950974	361.326964846597	916.409989928884	96.596997506270	385.692488502012	1044.366937647762	44.146458199716	353.878335195924	740.373481714747	1080.381476497968	199.625450117182	820.552208083997	832.399815959874	188.590257306748	886.689200905843	1091.902438532848	748.974480286945	1086.782608281451	928.362554009632	729.612116488888	
